<?xml version="1.0" encoding="UTF-8"?> <svg xmlns="http://www.w3.org/2000/svg" xmlns:xlink="http://www.w3.org/1999/xlink" version="1.1" id="Layer_1" x="0px" y="0px" width="293px" height="291.5px" viewBox="0 0 293 291.5" style="enable-background:new 0 0 293 291.5;" xml:space="preserve"> <style type="text/css"> .st0{fill:#4CB8BB;} .st1{fill:#141414;} </style> <path class="st0" d="M202.2,176.5c-48.7,0-88.2-39.6-88.2-88.2S153.5,0,202.2,0c48.7,0,88.2,39.6,88.2,88.2S250.8,176.5,202.2,176.5 z M202.2,10c-43.1,0-78.2,35.1-78.2,78.2s35.1,78.2,78.2,78.2s78.2-35.1,78.2-78.2S245.3,10,202.2,10z"></path> <path class="st0" d="M191.8,121.3C191.8,121.3,191.8,121.3,191.8,121.3c-1.3,0-2.6-0.5-3.5-1.5c-7.8-7.8-15.7-15.7-23.5-23.5 c-2-2-2-5.1,0-7.1c2-2,5.1-2,7.1,0c6.7,6.7,13.3,13.3,20,20L241.1,60c2-2,5.1-2,7.1,0c2,2,2,5.1,0,7.1l-52.8,52.8 C194.4,120.8,193.1,121.3,191.8,121.3z"></path> <path class="st1" d="M291.6,241.3c-1-1-2.3-1.6-3.6-1.6h-34.2v-55.1c0-2.8-2.2-5-5-5s-5,2.2-5,5v55.1h-106c-2.2,0-4.2,1.5-4.8,3.6 c-5.2,17.5-18.5,31.7-35.7,37.9c-12.1,1.5-23.2-2.7-28.5-10.7c-2.2-3.5-3.5-7.5-3.6-11.7V64h36.2c2.8,0,5-2.2,5-5s-2.2-5-5-5H38.1 c-0.1,0-0.2,0-0.3,0c-8.2,0.5-16,3.5-22.5,8.6c-18.4,14.7-15,39.8-14.8,40.9c0.4,2.5,2.5,4.3,5,4.3c0,0,0,0,0,0l49.9-0.2V259 c0.2,6,2,11.8,5.2,16.9c6.5,9.9,18.4,15.6,32,15.6c2.1,0,4.2-0.1,6.4-0.4h156.1c0.3,0,0.7,0,1-0.1c6.1-1.3,11.9-3.8,17-7.4 c17-12.2,19.6-32.6,20-38.5C293,243.7,292.5,242.3,291.6,241.3z M55.2,97.6L10,97.8c0-6.6,1.4-19.3,11.4-27.3 c4.9-3.8,10.7-6,16.8-6.4h17V97.6z M267.2,275.4c-3.9,2.7-8.1,4.6-12.8,5.7H118.3c10.5-7.9,18.6-18.8,23.1-31.4h140.9 C281,256.9,277.3,268.2,267.2,275.4z"></path> </svg> 