<?xml version="1.0" encoding="UTF-8"?>
<svg xmlns="http://www.w3.org/2000/svg" width="58" height="61" viewBox="0 0 58 61" fill="none">
  <path d="M47.3333 34.6667V13.3333C47.3333 10.3878 44.9455 8 42 8H7.33333C4.38781 8 2 10.3878 2 13.3333V21.3333M32.5 50.6667H7.33333C4.38781 50.6667 2 48.2789 2 45.3333V33.3333M2 29.3333V25.3333" stroke="#052451" stroke-width="4"></path>
  <circle cx="43.333" cy="46.6667" r="12" stroke="#052451" stroke-width="4"></circle>
  <line x1="12" y1="24.6667" x2="16" y2="24.6667" stroke="#052451" stroke-width="4" stroke-linecap="round"></line>
  <line x1="22.667" y1="24.6667" x2="26.667" y2="24.6667" stroke="#052451" stroke-width="4" stroke-linecap="round"></line>
  <line x1="33.333" y1="24.6667" x2="37.333" y2="24.6667" stroke="#052451" stroke-width="4" stroke-linecap="round"></line>
  <line x1="12" y1="32.6667" x2="16" y2="32.6667" stroke="#052451" stroke-width="4" stroke-linecap="round"></line>
  <line x1="22.667" y1="32.6667" x2="26.667" y2="32.6667" stroke="#052451" stroke-width="4" stroke-linecap="round"></line>
  <line x1="12" y1="40.6667" x2="16" y2="40.6667" stroke="#052451" stroke-width="4" stroke-linecap="round"></line>
  <path d="M39.333 45.7876L42.7616 50.6667L47.333 42.6667" stroke="#052451" stroke-width="4" stroke-linecap="round" stroke-linejoin="round"></path>
  <line x1="12" y1="14" x2="12" y2="2" stroke="#052451" stroke-width="4" stroke-linecap="round"></line>
  <line x1="37.333" y1="14" x2="37.333" y2="2" stroke="#052451" stroke-width="4" stroke-linecap="round"></line>
</svg>
