<svg width="56" height="56" viewBox="0 0 56 56" fill="none" xmlns="http://www.w3.org/2000/svg">
<path d="M42.0052 32.6686C47.162 32.6686 51.3424 36.849 51.3424 42.0058C51.3424 47.1626 47.162 51.343 42.0052 51.343C36.8484 51.343 32.668 47.1626 32.668 42.0058C32.668 36.849 36.8484 32.6686 42.0052 32.6686" stroke="#171717" stroke-width="2.5" stroke-linecap="round" stroke-linejoin="round"/>
<path d="M45.1527 40.4348L41.2217 44.3775L38.8594 42.0058" stroke="#171717" stroke-width="2.5" stroke-linecap="round" stroke-linejoin="round"/>
<path d="M19.4187 26.7651H14.4746" stroke="#171717" stroke-width="2.5" stroke-linecap="round" stroke-linejoin="round"/>
<path d="M39.3288 26.7651H34.3848" stroke="#171717" stroke-width="2.5" stroke-linecap="round" stroke-linejoin="round"/>
<path d="M41.8008 19.349L46.7425 16.877" stroke="#171717" stroke-width="2.5" stroke-linecap="round" stroke-linejoin="round"/>
<path d="M12.0027 19.349L7.05859 16.877" stroke="#171717" stroke-width="2.5" stroke-linecap="round" stroke-linejoin="round"/>
<path d="M18.858 6.99121C16.5607 6.99145 14.5659 8.57333 14.0423 10.8101L11.9414 19.7739L14.0423 10.8101C14.5659 8.57333 16.5607 6.99145 18.858 6.99121H34.9437C37.2407 6.99081 39.2351 8.5732 39.757 10.8101L41.8579 19.7739" stroke="#171717" stroke-width="2.5" stroke-linecap="round" stroke-linejoin="round"/>
<path d="M46.7418 27.9999V26.1558C46.7418 22.5071 43.7867 19.5479 40.138 19.5427H13.674C11.9197 19.5421 10.237 20.2386 8.99635 21.4788C7.75565 22.7191 7.05859 24.4015 7.05859 26.1558V37.3371C7.05859 38.6263 8.1037 39.6714 9.3929 39.6714H14.6124C15.9016 39.6714 16.9467 38.6263 16.9467 37.3371V34.1788H27.9997" stroke="#171717" stroke-width="2.5" stroke-linecap="round" stroke-linejoin="round"/>
</svg>
