<svg width="56" height="56" viewBox="0 0 56 56" fill="none" xmlns="http://www.w3.org/2000/svg">
<path d="M19.2467 26.8328H14.5781" stroke="#171717" stroke-width="2.5" stroke-linecap="round" stroke-linejoin="round"/>
<path d="M41.7324 19.349L46.6741 16.877" stroke="#171717" stroke-width="2.5" stroke-linecap="round" stroke-linejoin="round"/>
<path d="M11.9343 19.349L6.99023 16.877" stroke="#171717" stroke-width="2.5" stroke-linecap="round" stroke-linejoin="round"/>
<path d="M41.8883 20.1929L39.6387 10.5945C39.144 8.48369 37.2612 6.99121 35.0932 6.99121H18.5705C16.4025 6.99121 14.5197 8.4837 14.025 10.5945L11.7754 20.1929" stroke="#171717" stroke-width="2.5" stroke-linecap="round" stroke-linejoin="round"/>
<path d="M46.6734 27.9999V26.8328C46.6734 22.9651 43.5381 19.8298 39.6705 19.8298H13.9932C10.1255 19.8298 6.99023 22.9651 6.99023 26.8328V37.3371C6.99023 38.6263 8.03534 39.6714 9.32454 39.6714H14.544C15.8332 39.6714 16.8784 38.6263 16.8784 37.3371V33.8357H25.6647" stroke="#171717" stroke-width="2.5" stroke-linecap="round" stroke-linejoin="round"/>
<path d="M34.4199 26.8328H39.0885" stroke="#171717" stroke-width="2.5" stroke-linecap="round" stroke-linejoin="round"/>
<path d="M32.8962 41.3418L29.7694 44.4775C29.3851 44.8649 29.1691 45.3881 29.168 45.9337V48.1157C29.168 49.2534 30.0902 50.1758 31.2279 50.1758H33.4193C33.9661 50.1765 34.4906 49.9582 34.8755 49.5697L37.9918 46.4445" stroke="#171717" stroke-width="2.5" stroke-linecap="round" stroke-linejoin="round"/>
<path d="M32.8953 41.3418C32.1354 38.2876 33.5062 35.1016 36.2465 33.5534C38.9867 32.0052 42.4231 32.4752 44.6471 34.7022C46.871 36.9293 47.3361 40.3664 45.7841 43.1045C44.232 45.8425 41.0441 47.2089 37.9909 46.4446" stroke="#171717" stroke-width="2.5" stroke-linecap="round" stroke-linejoin="round"/>
<path d="M39.7878 39.6716C39.7877 39.736 39.7354 39.7882 39.671 39.7881C39.6066 39.7881 39.5543 39.7359 39.5543 39.6714C39.5543 39.607 39.6065 39.5548 39.6709 39.5547C39.7019 39.5547 39.7317 39.567 39.7536 39.5889C39.7755 39.6108 39.7878 39.6406 39.7878 39.6716" stroke="#171717" stroke-width="2.5" stroke-linecap="round" stroke-linejoin="round"/>
</svg>
