<?xml version="1.0" encoding="UTF-8"?> <svg xmlns="http://www.w3.org/2000/svg" xmlns:xlink="http://www.w3.org/1999/xlink" version="1.1" id="Layer_1" x="0px" y="0px" width="298.2px" height="296.1px" viewBox="0 0 298.2 296.1" style="enable-background:new 0 0 298.2 296.1;" xml:space="preserve"> <style type="text/css"> .st0{fill:#141414;} .st1{fill:#4CB8BB;} </style> <path class="st0" d="M298.2,169.5c-0.1,45.1-24.4,87.2-63.4,109.9c-3.9,2.2-30.1,16.7-65.1,16.7c-13.5,0-28.3-2.1-43.6-8 c-30.9-11.8-49.8-33.4-58.3-45.2c-1.6-2.2-1.1-5.4,1.1-7c2.2-1.6,5.4-1.1,7,1.1c7.8,10.9,25.2,30.8,53.7,41.7 c50.6,19.3,95.2-5.1,100.2-8c35.9-20.9,58.3-59.7,58.4-101.2c0-46.3-28.4-89.4-70.7-107.4C169.3,41.7,112,56.8,78.1,98.9 c-1.7,2.2-4.9,2.5-7,0.8c-2.2-1.7-2.5-4.9-0.8-7c24.5-30.4,60.3-47.9,97-49.4c0.1-11.1,0.3-22.2,0.5-33.2h-32.6c-2.8,0-5-2.2-5-5 c0-2.8,2.2-5,5-5h74.6c2.8,0,5,2.2,5,5c0,2.8-2.2,5-5,5h-32c-0.1,11.1-0.3,22.1-0.5,33.2c14.9,0.5,29.9,3.7,44.1,9.8 c22.7,9.6,42,25.8,55.8,46.8C290.9,120.6,298.2,144.8,298.2,169.5z"></path> <path class="st1" d="M224.4,129.1c-1.8-2.1-4.9-2.4-7-0.6l-28.4,23.8c-3.3-2.6-7.2-4.5-11.4-5.3V78.6c0-2.8-2.2-5-5-5s-5,2.2-5,5 v68.3c-12.1,2.3-21.4,13-21.4,25.9c0,14.5,11.8,26.4,26.4,26.4c14.5,0,26.4-11.8,26.4-26.4c0-4.7-1.2-9.1-3.4-13l28.4-23.7 C225.9,134.4,226.2,131.2,224.4,129.1z M172.5,189.2c-9,0-16.4-7.3-16.4-16.4c0-8.9,7.2-16.2,16.1-16.3c0.1,0,0.2,0,0.2,0 c0.1,0,0.2,0,0.2,0c4.8,0.1,9.2,2.2,12.1,5.7c0,0,0,0,0,0s0,0,0,0c2.4,2.9,3.9,6.6,3.9,10.6C188.8,181.9,181.5,189.2,172.5,189.2z"></path> <ellipse class="st1" cx="172.5" cy="156.5" rx="0.2" ry="0"></ellipse> <path class="st1" d="M119.9,139.9H29.8c-2.8,0-5-2.2-5-5s2.2-5,5-5h90.1c2.8,0,5,2.2,5,5S122.7,139.9,119.9,139.9z"></path> <path class="st1" d="M103.5,177.8H5c-2.8,0-5-2.2-5-5s2.2-5,5-5h98.5c2.8,0,5,2.2,5,5S106.3,177.8,103.5,177.8z"></path> <path class="st1" d="M87.1,215.7H21.5c-2.8,0-5-2.2-5-5s2.2-5,5-5h65.6c2.8,0,5,2.2,5,5S89.9,215.7,87.1,215.7z"></path> </svg> 