<svg width="56" height="56" viewBox="0 0 56 56" fill="none" xmlns="http://www.w3.org/2000/svg">
<path fill-rule="evenodd" clip-rule="evenodd" d="M44.4394 3.39392H42.053C40.6466 3.39391 39.2977 3.95262 38.3032 4.94713C37.3087 5.94164 36.75 7.29048 36.75 8.69693V9.75755C36.75 12.6863 39.1243 15.0606 42.053 15.0606H44.4394C44.7207 15.0606 44.9905 14.9488 45.1894 14.7499C45.3883 14.551 45.5 14.2812 45.5 13.9999V4.45451C45.5 4.17322 45.3883 3.90345 45.1894 3.70455C44.9904 3.50565 44.7207 3.39391 44.4394 3.39392Z" stroke="#171717" stroke-width="2.5" stroke-linecap="round" stroke-linejoin="round"/>
<path d="M45.5 12.4091H50.1667" stroke="#171717" stroke-width="2.5" stroke-linecap="round" stroke-linejoin="round"/>
<path d="M45.5 6.04545H50.1667" stroke="#171717" stroke-width="2.5" stroke-linecap="round" stroke-linejoin="round"/>
<path d="M28 9.33337C16.402 9.33337 7 18.7354 7 30.3334C7 41.9314 16.402 51.3334 28 51.3334C39.598 51.3334 49 41.9314 49 30.3334" stroke="#171717" stroke-width="2.5" stroke-linecap="round" stroke-linejoin="round"/>
<path d="M36.75 9.33341H28" stroke="#171717" stroke-width="2.5" stroke-linecap="round" stroke-linejoin="round"/>
<path fill-rule="evenodd" clip-rule="evenodd" d="M32.6663 35H23.333V36.1667C23.333 37.4553 22.2883 38.5 20.9997 38.5H18.6663C17.3777 38.5 16.333 37.4553 16.333 36.1667V32.0833C16.333 29.8282 18.1612 28 20.4163 28H35.583C37.8382 28 39.6663 29.8282 39.6663 32.0833V36.1667C39.6663 37.4553 38.6217 38.5 37.333 38.5H34.9997C33.711 38.5 32.6663 37.4553 32.6663 36.1667V35Z" stroke="#171717" stroke-width="2.5" stroke-linecap="round" stroke-linejoin="round"/>
<path d="M18.9912 28.2701L20.3326 22.5361C20.703 20.953 22.1148 19.8334 23.7406 19.8334H32.2585C33.8843 19.8334 35.2961 20.953 35.6665 22.5361L37.0079 28.2701" stroke="#171717" stroke-width="2.5" stroke-linecap="round" stroke-linejoin="round"/>
<path d="M19.2243 27.1192L16.333 25.6667" stroke="#171717" stroke-width="2.5" stroke-linecap="round" stroke-linejoin="round"/>
<path d="M36.7754 27.1192L39.6667 25.6667" stroke="#171717" stroke-width="2.5" stroke-linecap="round" stroke-linejoin="round"/>
</svg>
