<svg width="56" height="56" viewBox="0 0 56 56" fill="none" xmlns="http://www.w3.org/2000/svg">
<path d="M23.3333 23.3334H20.3192C19.2324 23.3334 18.1607 23.5864 17.1887 24.0724L15.8232 24.7551C14.6325 25.3505 13.6362 26.2731 12.9513 27.4146L7 37.3334" stroke="#171717" stroke-width="2.5" stroke-linecap="round" stroke-linejoin="round"/>
<path d="M35.0007 8.16663H30.334C26.468 8.16663 23.334 11.3006 23.334 15.1666V35" stroke="#171717" stroke-width="2.5" stroke-linecap="round" stroke-linejoin="round"/>
<path d="M30.334 44.3333H42.0007C45.8666 44.3333 49.0007 41.1993 49.0007 37.3333V21" stroke="#171717" stroke-width="2.5" stroke-linecap="round" stroke-linejoin="round"/>
<path d="M18.666 51.3334L25.0859 48.8647C26.9767 48.1377 28.5797 46.8151 29.6527 45.0969L36.7664 33.7054C37.6861 32.2327 37.4679 30.3201 36.2401 29.0924V29.0924C35.5162 28.3685 34.5265 27.974 33.5031 28.0013C32.4797 28.0287 31.5126 28.4755 30.8283 29.2371L25.6502 35H20.9993" stroke="#171717" stroke-width="2.5" stroke-linecap="round" stroke-linejoin="round"/>
<path d="M41.5312 11.2L44.3337 14L48.9979 9.33337" stroke="#171717" stroke-width="2.5" stroke-linecap="round" stroke-linejoin="round"/>
</svg>
