<?xml version="1.0" encoding="UTF-8"?> <svg xmlns="http://www.w3.org/2000/svg" xmlns:xlink="http://www.w3.org/1999/xlink" version="1.1" id="Layer_1" x="0px" y="0px" width="297.6px" height="298px" viewBox="0 0 297.6 298" style="enable-background:new 0 0 297.6 298;" xml:space="preserve"> <style type="text/css"> .st0{fill:#4CB8BB;} .st1{fill:#141414;} </style> <path class="st0" d="M158.1,142.9c0,0.1,0,0.1,0,0.2c0,0.2-0.1,0.3-0.1,0.5c0.1-0.1,0.1-0.3,0.1-0.4c0.1-0.2,0.1-0.5,0.1-0.7 C158.2,142.6,158.1,142.8,158.1,142.9z"></path> <path class="st0" d="M295,217.1c0,0-0.1,0-0.1-0.1l-71.3-62.1l0,0c-0.1-0.1-0.2-0.3-0.4-0.4l-20-17.4l11.3-12.9 c5.7-6.6,8.8-15,8.6-23.7c-0.1-3.9-0.8-7.7-2.2-11.3c-0.8-2.2-1.9-4.2-3.2-6.2c-0.1-0.2-0.2-0.5-0.4-0.7c-1.5-2.1-3.2-4-5.1-5.7 l-53.2-46.4c0.1,0.7,0.1,1.5,0.1,2.2c0,0.2,0,0.3,0,0.5v102.4c0,2.4-0.3,4.8-0.8,7.1c0,0.2-0.1,0.5-0.1,0.7c0,0.1-0.1,0.3-0.1,0.4 c0,0,0,0,0,0c-0.6,2.3-1.5,4.5-2.6,6.6c-1.8,3.5-4.2,6.5-7.1,9.1c-0.4,0.4-0.8,0.7-1.2,1.1c0.4-0.3,0.8-0.7,1.2-1.1 c2.9-2.6,5.3-5.7,7.1-9.1c0.9-1.8,1.7-3.7,2.3-5.6c0.6-0.8,0.9-1.8,0.9-2.8c0-0.3,0-0.5-0.1-0.8c0.3-1.8,0.5-3.7,0.5-5.6V43.7 l46.5,40.5c1.2,1,2.2,2.1,3.1,3.4c0.1,0.2,0.2,0.4,0.3,0.5c1,1.4,1.8,3,2.5,4.7c1,2.5,1.5,5.2,1.6,7.9c0,0.2,0,0.4,0,0.6 c0,6-2.2,11.8-6.1,16.3l-14.6,16.8l-44.8,51.5c-4.3,4.9-10.1,7.9-16.4,8.5c-6.2,0.6-12.2-1.3-16.8-5.3l-6.7-5.8v13.3l0.1,0.1 c5.9,5.1,13.3,7.9,21.2,7.9c1,0,2.1,0,3.1-0.1c8.9-0.8,17.1-5,23.1-11.9l11.3-13l91.7,79.9c0,0,0.1,0,0.1,0.1 c1.5,1.2,3.3,1.9,5.2,1.9c2.3,0,4.6-1,6.2-2.9l13-15v0l0.1-0.1l13-14.9C298.5,225.1,298.2,220.1,295,217.1z M263.1,250.4l-90.2-78.6 l23.7-27.2l16.2,14.1l-9.7,11.2c-0.4,0.4-0.7,0.9-1,1.4c-0.1,0.2-0.2,0.3-0.3,0.5c-0.1,0.2-0.2,0.5-0.3,0.7 c-0.2,0.5-0.3,0.9-0.4,1.4c-0.2,1-0.2,2,0,3c0.1,0.6,0.3,1.2,0.6,1.8c0.4,0.9,1.1,1.8,1.9,2.5c0,0,0.1,0.1,0.1,0.1l41.8,36.4 l4.2,3.6l22,19.1L263.1,250.4z M278.2,233l-66.5-57.9l0,0l8.5-9.8l66.5,57.9L278.2,233z"></path> <path class="st1" d="M149,33v102.4c0,1.6-0.2,3.1-0.5,4.7c-0.1,0.4-0.3,0.8-0.3,1.2c-0.4,1.5-1,2.9-1.7,4.3 c-1.3,2.4-2.9,4.5-4.9,6.4c-0.3,0.3-0.6,0.5-0.9,0.8c0.3-0.2,0.6-0.5,0.9-0.8c2-1.8,3.7-4,4.9-6.4c0.7-1.4,1.3-2.8,1.7-4.3v0 c0.1-0.2,0.1-0.3,0.1-0.5c0,0,0-0.1,0-0.1c0,0,0,0,0,0c0-0.2,0.1-0.3,0.1-0.5c0,0,0,0,0,0c0.3-1.5,0.5-3.1,0.5-4.6V33.2c0,0,0,0,0,0 L149,33L149,33z"></path> <path class="st1" d="M159,32.5c0-0.7,0-1.5-0.1-2.2c-1.2-15.3-13.1-27.7-29-29.9c-1.7-0.2-3.4-0.3-5.1-0.4H34.2C15.4,0,0,14.8,0,33 v102.4c0,18.2,15.4,33,34.2,33h17.2v121.8c0.1,4.4,3.7,7.9,8.1,7.9h39.9c4.4,0,8-3.5,8.1-7.9V168.4h17.4c3.8,0,7.5-0.6,11-1.8 c0.5-0.2,1-0.4,1.5-0.5c1.5-0.6,2.9-1.3,4.3-2c0.9-0.5,1.8-1.1,2.7-1.7c0,0,0,0,0,0c0.9-0.6,1.7-1.3,2.6-1.9h0 c0.4-0.3,0.8-0.7,1.2-1.1c2.9-2.6,5.3-5.7,7.1-9.1c1.1-2.1,2-4.3,2.6-6.6c0,0,0,0,0,0c0-0.2,0.1-0.3,0.1-0.5c0-0.1,0-0.1,0-0.2 c0-0.2,0.1-0.3,0.1-0.5c0.5-2.3,0.8-4.7,0.8-7.1V33C159,32.8,159,32.7,159,32.5z M97.5,288h-13v-88.1h13V288z M97.5,189.9H82.7 c-4.5-0.1-8.1,3.5-8.2,7.9V288h-13V168.4h36.1V189.9z M149,33.2C149,33.2,149,33.2,149,33.2v102.2c0,1.5-0.2,3.1-0.5,4.6 c0,0,0,0,0,0c0,0.2-0.1,0.3-0.1,0.5c0,0,0,0,0,0c0,0,0,0.1,0,0.1c0,0.2-0.1,0.4-0.1,0.5v0c-0.4,1.5-1,3-1.7,4.3 c-1.3,2.4-2.9,4.5-4.9,6.4c-0.3,0.3-0.6,0.5-0.9,0.8c-0.6,0.5-1.2,1-1.8,1.4c-0.6,0.4-1.3,0.8-1.9,1.2c-1.3,0.7-2.7,1.3-4.2,1.8 c-0.2,0.1-0.4,0.1-0.6,0.2c-0.7,0.2-1.3,0.4-2,0.5c-0.2,0.1-0.5,0.1-0.7,0.2c-1.5,0.3-3,0.4-4.5,0.4H34.2c-13.4,0-24.2-10.3-24.2-23 V33c0-12.7,10.9-23,24.2-23h90.5c1.2,0,2.5,0.1,3.7,0.3c11.8,1.7,20.5,11.1,20.6,22.5c0,0.1,0,0.1,0,0.2h0V33.2z"></path> <path class="st1" d="M148.2,141.2c0.1-0.2,0.1-0.3,0.1-0.5c0,0,0-0.1,0-0.1c0,0,0,0,0,0c0-0.2,0.1-0.3,0.1-0.5 C148.3,140.4,148.2,140.8,148.2,141.2z M158.1,142.9c0,0.1,0,0.1,0,0.2c0,0.2-0.1,0.3-0.1,0.5c0.1-0.1,0.1-0.3,0.1-0.4 c0.1-0.2,0.1-0.5,0.1-0.7C158.2,142.6,158.1,142.8,158.1,142.9z"></path> <path class="st0" d="M201.1,173.9c0.1-0.5,0.2-0.9,0.4-1.4C201.3,173,201.2,173.4,201.1,173.9z M211.8,175.2L211.8,175.2l66.4,57.9 L211.8,175.2z"></path> <path class="st0" d="M203.7,181.4c0,0-0.1-0.1-0.1-0.1c-0.8-0.7-1.4-1.6-1.9-2.5c0.4,0.9,1,1.8,1.9,2.6 C203.6,181.3,203.7,181.4,203.7,181.4l41.8,36.4L203.7,181.4z"></path> <path class="st0" d="M126.7,56.5c-2.1,5.3-4.2,10.6-6.3,15.9c0,0,0,0.1,0,0.1c0,0.1,0,0.1-0.1,0.2c-0.1,0.3-0.3,0.6-0.5,0.9 c-0.9,1.3-2.4,2.1-4,2.1c-0.2,0-0.3,0-0.5,0l-19.1-2c-2.8-0.3-4.7-2.7-4.5-5.5s2.7-4.7,5.5-4.4l8.9,0.9c-3.5-4.2-8.1-7.6-13.3-9.7 c-8.6-3.6-18.2-3.7-26.9-0.1S50.4,65.1,46.8,73.8c-0.8,1.9-2.7,3.1-4.6,3.1c-0.7,0-1.3-0.1-1.9-0.4c-2.5-1.1-3.8-4-2.7-6.5 c9.6-22.9,36.1-33.8,59-24.2c7.2,3,13.4,7.8,18.1,13.8c0.9-2.2,1.8-4.5,2.7-6.7c1-2.6,3.9-3.8,6.5-2.8 C126.5,51.1,127.7,54,126.7,56.5z"></path> <path class="st0" d="M120.2,72.8c-0.1,0.3-0.3,0.6-0.5,0.9C119.9,73.4,120.1,73.1,120.2,72.8z"></path> <path class="st0" d="M121.4,100.8c-4.7,11.1-13.4,19.8-24.5,24.3c-5.5,2.3-11.3,3.4-17.1,3.4c-5.9,0-11.8-1.2-17.4-3.5 c-7.2-3-13.4-7.8-18.1-13.8l-2.7,6.7c-0.8,2-2.7,3.2-4.6,3.2c-0.6,0-1.2-0.1-1.8-0.4c-2.6-1-3.8-3.9-2.8-6.5l6.3-15.9l0.1-0.1 c0.2-0.4,0.4-0.8,0.6-1.1c0.1-0.1,0.1-0.2,0.2-0.3c0.1-0.1,0.2-0.2,0.2-0.3c0.1-0.1,0.2-0.2,0.3-0.2c0.1-0.1,0.2-0.2,0.3-0.2 c0.1-0.1,0.2-0.1,0.3-0.2c0.1-0.1,0.2-0.1,0.3-0.2s0.2-0.1,0.3-0.2c0.2-0.1,0.3-0.1,0.5-0.2c0.1,0,0.3-0.1,0.4-0.1c0,0,0.1,0,0.2,0 c0.1,0,0.3-0.1,0.5-0.1c0.2,0,0.3,0,0.5,0c0,0,0,0,0,0c0.2,0,0.4,0,0.5,0l0.2,0l18.9,2c2.8,0.3,4.7,2.7,4.4,5.5 c-0.3,2.8-2.7,4.7-5.5,4.4L53,106c3.6,4.2,8.1,7.5,13.2,9.7c17.9,7.5,38.5-1,46-18.8c1.1-2.5,4-3.8,6.5-2.7 C121.3,95.3,122.5,98.3,121.4,100.8z"></path> </svg> 