<svg width="56" height="56" viewBox="0 0 56 56" fill="none" xmlns="http://www.w3.org/2000/svg">
<path d="M19.2467 26.8328H14.5781" stroke="#171717" stroke-width="2.5" stroke-linecap="round" stroke-linejoin="round"/>
<path d="M41.7324 19.349L46.6741 16.877" stroke="#171717" stroke-width="2.5" stroke-linecap="round" stroke-linejoin="round"/>
<path d="M11.9353 19.349L6.99121 16.877" stroke="#171717" stroke-width="2.5" stroke-linecap="round" stroke-linejoin="round"/>
<path d="M41.8893 20.1929L39.6396 10.5945C39.1449 8.48369 37.2622 6.99121 35.0942 6.99121H18.5714C16.4034 6.99121 14.5207 8.4837 14.026 10.5945L11.7764 20.1929" stroke="#171717" stroke-width="2.5" stroke-linecap="round" stroke-linejoin="round"/>
<path d="M46.6744 27.9999V26.8328C46.6744 22.9651 43.5391 19.8298 39.6715 19.8298H13.9941C10.1265 19.8298 6.99121 22.9651 6.99121 26.8328V37.3371C6.99121 38.6263 8.03632 39.6714 9.32552 39.6714H14.545C15.8342 39.6714 16.8793 38.6263 16.8793 37.3371V33.8357H25.6657" stroke="#171717" stroke-width="2.5" stroke-linecap="round" stroke-linejoin="round"/>
<path d="M34.4189 26.8328H39.0876" stroke="#171717" stroke-width="2.5" stroke-linecap="round" stroke-linejoin="round"/>
<path d="M32.8953 41.3418L29.7684 44.4775C29.3842 44.8649 29.1681 45.3881 29.167 45.9337V48.1157C29.167 49.2534 30.0892 50.1758 31.2269 50.1758H33.4183C33.9652 50.1765 34.4896 49.9582 34.8745 49.5697L37.9908 46.4445" stroke="#171717" stroke-width="2.5" stroke-linecap="round" stroke-linejoin="round"/>
<path d="M32.8953 41.3418C32.1354 38.2876 33.5062 35.1016 36.2465 33.5534C38.9867 32.0052 42.4231 32.4752 44.6471 34.7022C46.871 36.9293 47.3361 40.3664 45.7841 43.1045C44.232 45.8425 41.0441 47.2089 37.9909 46.4446" stroke="#171717" stroke-width="2.5" stroke-linecap="round" stroke-linejoin="round"/>
<path d="M39.7887 39.6716C39.7886 39.736 39.7364 39.7882 39.672 39.7881C39.6075 39.7881 39.5553 39.7359 39.5553 39.6714C39.5553 39.607 39.6075 39.5548 39.6719 39.5547C39.7029 39.5547 39.7327 39.567 39.7546 39.5889C39.7765 39.6108 39.7888 39.6406 39.7888 39.6716" stroke="#171717" stroke-width="2.5" stroke-linecap="round" stroke-linejoin="round"/>
</svg>
