<?xml version="1.0" encoding="UTF-8"?> <svg xmlns="http://www.w3.org/2000/svg" xmlns:xlink="http://www.w3.org/1999/xlink" version="1.1" id="Layer_1" x="0px" y="0px" width="298.2px" height="298.2px" viewBox="0 0 298.2 298.2" style="enable-background:new 0 0 298.2 298.2;" xml:space="preserve"> <style type="text/css"> .st0{fill:#141414;} .st1{fill:#4CB8BB;} </style> <path class="st0" d="M58.2,159c-1.7,0-3.3-0.8-4.2-2.3L11.3,91.8C5.9,84.4-0.4,72.4,0,57.5C0.7,29.7,24,0,57.6,0 c33.8,0,57.1,29.7,57.6,57.5c0,0,0,0,0,0c0.3,14.7-6,26.6-11.4,33.9l-41.4,65.2C61.5,158.1,59.9,159,58.2,159 C58.2,159,58.2,159,58.2,159z M57.6,10c-27.7,0-47,24.7-47.6,47.7c-0.3,12.2,5,22.1,9.4,28.3c0,0.1,0.1,0.1,0.1,0.2l38.5,58.5 l37.3-58.9c0.1-0.1,0.1-0.2,0.2-0.3c4.5-6.1,9.8-15.9,9.6-27.9C104.8,35.1,85.1,10,57.6,10z"></path> <path class="st1" d="M57.6,84.5C44,84.5,33,73.5,33,59.9s11-24.6,24.6-24.6s24.6,11,24.6,24.6S71.2,84.5,57.6,84.5z M57.6,45.3 c-8.1,0-14.6,6.6-14.6,14.6s6.6,14.6,14.6,14.6s14.6-6.6,14.6-14.6S65.7,45.3,57.6,45.3z"></path> <path class="st0" d="M241.2,298.2c-1.7,0-3.3-0.8-4.2-2.3l-42.7-64.9c-5.4-7.5-11.7-19.5-11.3-34.4c0.7-27.8,24-57.5,57.6-57.5 c33.8,0,57.1,29.7,57.6,57.5c0,0,0,0,0,0c0.3,14.7-6,26.6-11.4,33.9c-13.8,21.8-27.6,43.5-41.4,65.3 C244.5,297.4,242.9,298.2,241.2,298.2C241.2,298.2,241.2,298.2,241.2,298.2z M240.6,149.2c-27.7,0-47,24.7-47.6,47.7 c-0.3,12.2,5,22.1,9.5,28.4c0,0.1,0.1,0.1,0.1,0.2l38.5,58.5c12.4-19.6,24.8-39.2,37.3-58.9c0.1-0.1,0.1-0.2,0.2-0.3 c4.5-6.1,9.8-15.9,9.6-27.9C287.7,174.4,268.1,149.2,240.6,149.2z"></path> <path class="st1" d="M240.6,223.7c-13.6,0-24.6-11-24.6-24.6s11-24.6,24.6-24.6s24.6,11,24.6,24.6S254.1,223.7,240.6,223.7z M240.6,184.5c-8.1,0-14.6,6.6-14.6,14.6s6.6,14.6,14.6,14.6s14.6-6.6,14.6-14.6S248.6,184.5,240.6,184.5z"></path> <path class="st1" d="M188,270H47c-21.8,0-39.5-17.7-39.5-39.5S25.2,191,47,191h82.1c0.1,0,0.2,0,0.3,0c8.3,0.4,16.3-2.4,22.5-8.1 c5.9-5.5,9.4-13,9.7-20.7c0.2-8-3.1-16-9.1-21.8c-6.2-6-14.6-9.2-23.1-8.8c-0.1,0-0.2,0-0.3,0h-26.9c-2.8,0-5-2.2-5-5s2.2-5,5-5H129 c11.3-0.5,22.4,3.7,30.5,11.6c8,7.8,12.4,18.5,12.1,29.3c-0.3,10.4-5,20.5-12.9,27.8c-8.2,7.5-18.7,11.3-29.7,10.8H47 c-16.3,0-29.5,13.3-29.5,29.5S30.7,260,47,260H188c2.8,0,5,2.2,5,5S190.7,270,188,270z"></path> </svg> 