<svg width="56" height="56" viewBox="0 0 56 56" fill="none" xmlns="http://www.w3.org/2000/svg">
<path d="M25.6667 7H14C10.134 7 7 10.134 7 14V16.3333" stroke="#171717" stroke-width="2.5" stroke-linecap="round" stroke-linejoin="round"/>
<path d="M39.666 49H41.9993C45.8653 49 48.9993 45.866 48.9993 42V28" stroke="#171717" stroke-width="2.5" stroke-linecap="round" stroke-linejoin="round"/>
<path d="M28.7222 32.8611H16.1111C14.9452 32.8611 14 31.916 14 30.75V23.3334" stroke="#171717" stroke-width="2.5" stroke-linecap="round" stroke-linejoin="round"/>
<circle cx="26.834" cy="45.5" r="3.5" stroke="#171717" stroke-width="2.5" stroke-linecap="round" stroke-linejoin="round"/>
<path d="M7 23.3334H14.9444C18.2669 23.3334 21.3954 24.8976 23.3889 27.5556L25.9441 30.9626C26.3462 31.4987 26.8676 31.9338 27.467 32.2335L32.4203 34.7102C34.0013 35.5007 35 37.1166 35 38.8842V42.35C35 44.0897 33.5897 45.5 31.85 45.5H30.3333" stroke="#171717" stroke-width="2.5" stroke-linecap="round" stroke-linejoin="round"/>
<path d="M23.3333 45.5H7" stroke="#171717" stroke-width="2.5" stroke-linecap="round" stroke-linejoin="round"/>
<path d="M32.666 12.8333V12.8333C32.666 8.32297 36.3224 4.66663 40.8327 4.66663V4.66663C45.343 4.66663 48.9993 8.32297 48.9993 12.8333V12.8333" stroke="#171717" stroke-width="2.5" stroke-linecap="round" stroke-linejoin="round"/>
<path d="M32.666 12.8334C32.666 16.7095 36.9968 20.855 39.3503 22.8228C40.2201 23.5033 41.4417 23.5037 42.3119 22.8236C44.6675 20.856 48.9993 16.71 48.9993 12.8334" stroke="#171717" stroke-width="2.5" stroke-linecap="round" stroke-linejoin="round"/>
<path d="M40.4186 12.4222L40.4197 12.4212C40.6472 12.1943 41.0155 12.1946 41.2426 12.422C41.4696 12.6493 41.4695 13.0177 41.2423 13.2449C41.0151 13.4721 40.6468 13.4722 40.4194 13.2451C40.1921 13.0181 40.1917 12.6497 40.4186 12.4222" stroke="#171717" stroke-width="2.5" stroke-linecap="round" stroke-linejoin="round"/>
</svg>
