<?xml version="1.0" encoding="UTF-8"?>
<svg xmlns="http://www.w3.org/2000/svg" width="58" height="58" viewBox="0 0 58 58" fill="none">
  <path d="M12.667 20.6667L14.9734 2L42.0003 20.6667" stroke="#052451" stroke-width="4" stroke-miterlimit="10" stroke-linecap="round" stroke-linejoin="round"></path>
  <path d="M12.364 7.33333H7.67496C6.16462 7.35098 4.72127 8.06471 3.65863 9.31933C2.59598 10.5739 1.99992 12.268 2 14.0335C2.01493 15.7873 2.61762 17.4643 3.67866 18.7045C4.73971 19.9447 6.1745 20.6492 7.67496 20.6667H55.3332V15.8425C55.3392 14.7276 55.1566 13.6223 54.7957 12.5902C54.4349 11.5582 53.903 10.6197 53.2306 9.82888C52.5583 9.03801 51.7587 8.41036 50.8781 7.98208C49.9974 7.5538 49.0529 7.33331 48.099 7.33333L23.3333 7.33333" stroke="#052451" stroke-width="4" stroke-miterlimit="10" stroke-linecap="round"></path>
  <path d="M50.8831 31.3333H55.333V44.6667H46.6804C44.7317 44.6667 42.8629 43.9741 41.485 42.7412C40.1071 41.5084 39.333 39.8364 39.333 38.0929V37.9159C39.333 36.1725 40.1071 34.5004 41.485 33.2676C42.8629 32.0348 44.7317 31.3422 46.6804 31.3422L50.8831 31.3333Z" stroke="#052451" stroke-width="4" stroke-miterlimit="10" stroke-linecap="round"></path>
  <path d="M55.3333 17.5814V50.156C55.3333 50.8359 55.2052 51.5091 54.9563 52.1372C54.7074 52.7654 54.3426 53.3362 53.8827 53.817C53.4228 54.2977 52.8768 54.6791 52.2759 54.9393C51.6751 55.1995 51.031 55.3333 50.3806 55.3333H6.94126C6.2914 55.3333 5.64792 55.1994 5.04768 54.9391C4.44743 54.6787 3.9022 54.2971 3.44321 53.8162C2.98423 53.3353 2.62049 52.7644 2.37285 52.1364C2.1252 51.5083 1.99851 50.8353 2.00002 50.156V41.6666M2.00002 13.6666L2 29.672M2.00002 37.672V33.672" stroke="#052451" stroke-width="4" stroke-miterlimit="10"></path>
</svg>
